<svg width="12" height="12" viewBox="0 0 12 12" fill="none" xmlns="http://www.w3.org/2000/svg">
<path d="M11.3818 0H8.26731C7.92611 0 7.64866 0.27745 7.64866 0.618654V0.621015C7.6522 0.959622 7.92989 1.23495 8.26731 1.23495H9.8914L5.36837 5.76009C5.25173 5.87674 5.1875 6.03188 5.1875 6.19717C5.1875 6.36246 5.25173 6.51759 5.36837 6.63424C5.4829 6.74876 5.64181 6.81464 5.80426 6.81464C5.96672 6.81464 6.12563 6.749 6.24016 6.63424L10.7655 2.10933V3.73318C10.7655 4.07438 11.042 4.35183 11.3818 4.35183C11.7216 4.35183 12.0005 4.07438 12.0005 3.73318V0.618654C12.0005 0.27745 11.723 0 11.3818 0Z" fill="#5E75E8"/>
<path d="M11.379 5.57969C11.0392 5.57969 10.7627 5.8562 10.7627 6.19599V9.35537C10.7627 10.1313 10.1313 10.7627 9.35537 10.7627H2.64227C1.86635 10.7627 1.23495 10.1313 1.23495 9.35537V2.64463C1.23495 1.86871 1.86635 1.23731 2.64227 1.23731H5.77568C6.11547 1.23731 6.39197 0.959858 6.39197 0.618654C6.39197 0.27745 6.11547 0 5.77568 0H2.64227C1.18536 0 0 1.18536 0 2.64227V9.35537C0 10.8137 1.18536 12 2.64227 12H9.35537C10.8123 12 11.9976 10.8146 11.9976 9.35773V6.19599C11.9976 5.8562 11.7202 5.57969 11.379 5.57969V5.57969Z" fill="#0099E5"/>
</svg>
