<svg width="16" height="16" viewBox="0 0 16 16" fill="none" xmlns="http://www.w3.org/2000/svg">
<path d="M10.9211 2.79248H1.63817C0.733435 2.79248 0 3.54254 0 4.46779V13.9612C0 14.8864 0.733435 15.6365 1.63817 15.6365H10.9211C11.8259 15.6365 12.5593 14.8864 12.5593 13.9612V4.46779C12.5593 3.54254 11.8259 2.79248 10.9211 2.79248ZM11.4672 13.9612C11.4672 14.2696 11.2227 14.5197 10.9211 14.5197H1.63817C1.33658 14.5197 1.09211 14.2696 1.09211 13.9612V4.46779C1.09211 4.15936 1.33658 3.90934 1.63817 3.90934H10.9211C11.2227 3.90934 11.4672 4.15936 11.4672 4.46779V13.9612Z" fill="#728A96"/>
<path d="M13.6508 0H3.82177C2.91703 0 2.18359 0.75006 2.18359 1.67531C2.18359 1.98373 2.42807 2.23375 2.72966 2.23375C3.03125 2.23375 3.2757 1.98373 3.2757 1.67531C3.2757 1.36688 3.52018 1.11686 3.82177 1.11686H13.6508C13.9524 1.11686 14.1969 1.36688 14.1969 1.67531V11.7271C14.1969 12.0356 13.9524 12.2856 13.6508 12.2856C13.3492 12.2856 13.1047 12.5356 13.1047 12.844C13.1047 13.1525 13.3492 13.4025 13.6508 13.4025C14.5555 13.4025 15.289 12.6524 15.289 11.7272V1.67531C15.289 0.75006 14.5555 0 13.6508 0Z" fill="#728A96"/>
</svg>
